<svg width="50" height="61" viewBox="0 0 50 61" fill="none" xmlns="http://www.w3.org/2000/svg">
<path d="M44.4899 19.5246L21.4381 2.61069C19.4311 1.13763 17.055 0.249665 14.5738 0.0454114C12.0926 -0.158842 9.60335 0.328606 7.38244 1.45363C5.16152 2.57865 3.29589 4.29721 1.99269 6.41849C0.689494 8.53976 -0.00025865 10.9807 2.51405e-05 13.4703V47.2981C-0.00478895 49.7887 0.681865 52.2318 1.98351 54.3552C3.28516 56.4786 5.1507 58.1991 7.37237 59.3249C9.59403 60.4507 12.0846 60.9376 14.5667 60.7316C17.0488 60.5255 19.4249 59.6345 21.4305 58.1578L44.4949 41.2439C46.2011 39.9935 47.5887 38.3586 48.5451 36.4719C49.5016 34.5851 50 32.4995 50 30.3842C50 28.2689 49.5016 26.1833 48.5451 24.2966C47.5887 22.4098 46.2011 20.775 44.4949 19.5246H44.4899ZM39.996 35.1162L16.9443 52.03C16.0697 52.6727 15.0341 53.0603 13.9525 53.1497C12.8708 53.2392 11.7856 53.0269 10.8173 52.5366C9.84907 52.0463 9.03572 51.2972 8.46766 50.3724C7.8996 49.4476 7.59908 48.3834 7.5995 47.2981V13.4703C7.58787 12.3834 7.88374 11.3154 8.45295 10.3894C9.02217 9.46343 9.84156 8.71721 10.8166 8.23683C11.6421 7.81298 12.556 7.58992 13.484 7.58581C14.7276 7.59195 15.9366 7.99583 16.9342 8.7384L39.9859 25.6523C40.7293 26.1972 41.3339 26.9095 41.7506 27.7316C42.1674 28.5538 42.3846 29.4625 42.3846 30.3842C42.3846 31.3059 42.1674 32.2147 41.7506 33.0368C41.3339 33.8589 40.7293 34.5713 39.9859 35.1162H39.996Z" fill="white"/>
</svg>
