<svg width="50" height="56" viewBox="0 0 50 56" fill="none" xmlns="http://www.w3.org/2000/svg">
<path d="M14.7188 48.8008C15.6196 50.8721 17.1058 52.6353 18.9948 53.8737C20.8838 55.1121 23.0934 55.7718 25.3521 55.7718C27.6109 55.7718 29.8205 55.1121 31.7095 53.8737C33.5985 52.6353 35.0847 50.8721 35.9855 48.8008H14.7188Z" fill="white"/>
<path d="M49.5 29.162L45.466 15.8633C44.1742 11.212 41.3655 7.12557 37.486 4.2528C33.6065 1.38004 28.8785 -0.114374 24.0526 0.00683242C19.2268 0.128039 14.5798 1.85792 10.8493 4.92182C7.11893 7.98571 4.51897 12.208 3.46227 16.9183L0.329887 29.7848C-0.0864475 31.4945 -0.109005 33.2764 0.263917 34.9961C0.636839 36.7158 1.3955 38.3283 2.48264 39.7119C3.56978 41.0956 4.95701 42.2142 6.53963 42.9835C8.12224 43.7527 9.85891 44.1524 11.6186 44.1524H38.381C40.1952 44.1525 41.9842 43.7277 43.6047 42.9121C45.2253 42.0964 46.6323 40.9127 47.7131 39.4555C48.7939 37.9984 49.5185 36.3084 49.8288 34.521C50.1391 32.7335 50.0265 30.8982 49.5 29.162V29.162Z" fill="white"/>
</svg>
